<?xml version="1.0" encoding="UTF-8" standalone="no"?>
<!-- Created with Inkscape (http://www.inkscape.org/) -->

<svg
   xmlns:dc="http://purl.org/dc/elements/1.1/"
   xmlns:cc="http://creativecommons.org/ns#"
   xmlns:rdf="http://www.w3.org/1999/02/22-rdf-syntax-ns#"
   xmlns:svg="http://www.w3.org/2000/svg"
   xmlns="http://www.w3.org/2000/svg"
   xmlns:sodipodi="http://sodipodi.sourceforge.net/DTD/sodipodi-0.dtd"
   xmlns:inkscape="http://www.inkscape.org/namespaces/inkscape"
   version="1.1"
   id="svg12633"
   xml:space="preserve"
   width="800"
   height="800"
   viewBox="0 0 800 800"
   sodipodi:docname="dots-15a-freesvg.org.svg"
   inkscape:version="0.92.4 (5da689c313, 2019-01-14)"><metadata
     id="metadata12639"><rdf:RDF><cc:Work
         rdf:about=""><dc:format>image/svg+xml</dc:format><dc:type
           rdf:resource="http://purl.org/dc/dcmitype/StillImage" /><dc:title /></cc:Work></rdf:RDF></metadata><defs
     id="defs12637"><clipPath
       clipPathUnits="userSpaceOnUse"
       id="clipPath12649"><path
         d="M 0,600 H 600 V 0 H 0 Z"
         id="path12647"
         inkscape:connector-curvature="0" /></clipPath></defs><sodipodi:namedview
     pagecolor="#ffffff"
     bordercolor="#666666"
     borderopacity="1"
     objecttolerance="10"
     gridtolerance="10"
     guidetolerance="10"
     inkscape:pageopacity="0"
     inkscape:pageshadow="2"
     inkscape:window-width="1920"
     inkscape:window-height="1018"
     id="namedview12635"
     showgrid="false"
     inkscape:zoom="0.77063077"
     inkscape:cx="263.60424"
     inkscape:cy="350.84746"
     inkscape:window-x="-8"
     inkscape:window-y="-8"
     inkscape:window-maximized="1"
     inkscape:current-layer="g12641" /><g
     id="g12641"
     inkscape:groupmode="layer"
     inkscape:label="dots-15a-publicdomainvectors [Converted]"
     transform="matrix(1.3333333,0,0,-1.3333333,0,800)"><g
       id="g12643"><g
         id="g12645"
         clip-path="url(#clipPath12649)"><path
           d="m 594.369,323.334 c 1.316,0.066 2.499,-0.985 2.631,-2.363 0,-1.378 -1.051,-2.597 -2.367,-2.659 -1.447,-0.102 -2.631,0.95 -2.631,2.332 -0.132,1.378 0.917,2.593 2.367,2.69"
           style="fill:#231f20;fill-opacity:1;fill-rule:nonzero;stroke:none"
           id="path12651"
           inkscape:connector-curvature="0" /><path
           d="m 593.848,331.512 c 1.438,0.102 2.622,-0.949 2.622,-2.332 0.133,-1.378 -0.917,-2.592 -2.367,-2.694 -1.307,-0.061 -2.491,0.955 -2.623,2.336 0,1.379 1.052,2.593 2.368,2.69"
           style="fill:#231f20;fill-opacity:1;fill-rule:nonzero;stroke:none"
           id="path12653"
           inkscape:connector-curvature="0" /><path
           d="m 593.449,339.527 c 1.379,0.102 2.563,-0.949 2.624,-2.331 0.133,-1.378 -0.981,-2.592 -2.357,-2.694 -1.378,-0.097 -2.562,0.953 -2.634,2.367 -0.132,1.378 0.989,2.561 2.367,2.658"
           style="fill:#231f20;fill-opacity:1;fill-rule:nonzero;stroke:none"
           id="path12655"
           inkscape:connector-curvature="0" /><path
           d="m 593.054,347.706 c 1.315,0.132 2.499,-0.918 2.631,-2.296 0,-1.382 -1.052,-2.597 -2.368,-2.694 -1.447,-0.102 -2.622,0.984 -2.622,2.331 -0.133,1.378 0.917,2.562 2.359,2.659"
           style="fill:#231f20;fill-opacity:1;fill-rule:nonzero;stroke:none"
           id="path12657"
           inkscape:connector-curvature="0" /><path
           d="m 592.532,356.445 c 1.376,0.062 2.56,-0.988 2.622,-2.367 0.132,-1.377 -0.979,-2.56 -2.358,-2.658 -1.387,-0.102 -2.562,0.95 -2.631,2.331 -0.062,1.379 0.989,2.562 2.367,2.694"
           style="fill:#231f20;fill-opacity:1;fill-rule:nonzero;stroke:none"
           id="path12659"
           inkscape:connector-curvature="0" /><path
           d="m 549.368,331.349 c 2.236,0.132 4.143,-1.577 4.204,-3.776 0.133,-2.234 -1.51,-4.138 -3.744,-4.302 -2.226,-0.132 -4.072,1.542 -4.204,3.746 -0.124,2.199 1.58,4.137 3.744,4.332"
           style="fill:#231f20;fill-opacity:1;fill-rule:nonzero;stroke:none"
           id="path12661"
           inkscape:connector-curvature="0" /><path
           d="m 548.652,344.42 c 2.226,0.168 4.134,-1.51 4.204,-3.74 0.124,-2.203 -1.518,-4.107 -3.744,-4.305 -2.173,-0.133 -4.142,1.545 -4.275,3.744 -0.062,2.234 1.642,4.138 3.815,4.301"
           style="fill:#231f20;fill-opacity:1;fill-rule:nonzero;stroke:none"
           id="path12663"
           inkscape:connector-curvature="0" /><path
           d="m 547.99,357.267 c 2.235,0.163 4.072,-1.515 4.204,-3.745 0.133,-2.204 -1.572,-4.143 -3.806,-4.306 -2.172,-0.128 -4.072,1.546 -4.203,3.745 -0.134,2.204 1.571,4.138 3.805,4.306"
           style="fill:#231f20;fill-opacity:1;fill-rule:nonzero;stroke:none"
           id="path12665"
           inkscape:connector-curvature="0" /><path
           d="m 547.337,370.338 c 2.101,0.195 4.072,-1.479 4.204,-3.678 0.063,-2.235 -1.643,-4.174 -3.815,-4.306 -2.226,-0.163 -4.133,1.546 -4.205,3.714 -0.124,2.23 1.582,4.139 3.816,4.27"
           style="fill:#231f20;fill-opacity:1;fill-rule:nonzero;stroke:none"
           id="path12667"
           inkscape:connector-curvature="0" /><path
           d="m 546.551,384.298 c 2.164,0.128 4.071,-1.546 4.204,-3.745 0.123,-2.203 -1.581,-4.137 -3.816,-4.305 -2.234,-0.129 -4.072,1.545 -4.204,3.78 -0.132,2.199 1.581,4.102 3.816,4.27"
           style="fill:#231f20;fill-opacity:1;fill-rule:nonzero;stroke:none"
           id="path12669"
           inkscape:connector-curvature="0" /><path
           d="m 502.663,335.946 c 3.021,0.168 5.653,-2.133 5.785,-5.154 0.132,-3.056 -2.173,-5.714 -5.122,-5.913 -3.092,-0.198 -5.653,2.102 -5.847,5.122 -0.204,3.057 2.164,5.715 5.184,5.945"
           style="fill:#231f20;fill-opacity:1;fill-rule:nonzero;stroke:none"
           id="path12671"
           inkscape:connector-curvature="0" /><path
           d="m 501.745,353.946 c 2.959,0.229 5.582,-2.067 5.785,-5.122 0.132,-3.088 -2.234,-5.684 -5.256,-5.914 -3.02,-0.194 -5.652,2.102 -5.785,5.127 -0.132,3.052 2.173,5.714 5.256,5.909"
           style="fill:#231f20;fill-opacity:1;fill-rule:nonzero;stroke:none"
           id="path12673"
           inkscape:connector-curvature="0" /><path
           d="m 500.693,371.583 c 3.091,0.231 5.654,-2.065 5.786,-5.091 0.256,-3.052 -2.103,-5.714 -5.123,-5.944 -3.03,-0.194 -5.652,2.138 -5.785,5.158 -0.195,3.021 2.102,5.684 5.122,5.877"
           style="fill:#231f20;fill-opacity:1;fill-rule:nonzero;stroke:none"
           id="path12675"
           inkscape:connector-curvature="0" /><path
           d="m 499.775,389.583 c 3.021,0.266 5.653,-2.07 5.785,-5.055 0.124,-3.088 -2.234,-5.719 -5.193,-5.949 -3.092,-0.195 -5.653,2.138 -5.785,5.158 -0.194,3.056 2.173,5.683 5.193,5.846"
           style="fill:#231f20;fill-opacity:1;fill-rule:nonzero;stroke:none"
           id="path12677"
           inkscape:connector-curvature="0" /><path
           d="m 498.725,408.798 c 3.02,0.164 5.651,-2.168 5.785,-5.188 0.194,-3.021 -2.103,-5.649 -5.194,-5.882 -3.021,-0.195 -5.653,2.102 -5.776,5.158 -0.203,3.02 2.164,5.647 5.185,5.912"
           style="fill:#231f20;fill-opacity:1;fill-rule:nonzero;stroke:none"
           id="path12679"
           inkscape:connector-curvature="0" /><path
           d="m 454.315,337.063 c 3.949,0.23 7.225,-2.689 7.429,-6.567 0.194,-3.876 -2.765,-7.259 -6.633,-7.52 -3.816,-0.23 -7.163,2.658 -7.358,6.536 -0.202,3.872 2.756,7.255 6.562,7.551"
           style="fill:#231f20;fill-opacity:1;fill-rule:nonzero;stroke:none"
           id="path12681"
           inkscape:connector-curvature="0" /><path
           d="m 453.132,359.992 c 3.816,0.295 7.233,-2.663 7.357,-6.536 0.203,-3.909 -2.755,-7.229 -6.633,-7.557 -3.806,-0.229 -7.153,2.694 -7.357,6.572 -0.194,3.873 2.765,7.256 6.633,7.521"
           style="fill:#231f20;fill-opacity:1;fill-rule:nonzero;stroke:none"
           id="path12683"
           inkscape:connector-curvature="0" /><path
           d="m 451.887,382.425 c 3.878,0.297 7.163,-2.663 7.428,-6.504 0.194,-3.843 -2.827,-7.26 -6.571,-7.556 -3.94,-0.261 -7.224,2.694 -7.49,6.571 -0.194,3.873 2.756,7.225 6.633,7.489"
           style="fill:#231f20;fill-opacity:1;fill-rule:nonzero;stroke:none"
           id="path12685"
           inkscape:connector-curvature="0" /><path
           d="m 450.703,405.319 c 3.817,0.357 7.163,-2.597 7.295,-6.439 0.266,-3.909 -2.765,-7.26 -6.57,-7.521 -3.807,-0.296 -7.226,2.694 -7.358,6.537 -0.194,3.873 2.756,7.224 6.633,7.423"
           style="fill:#231f20;fill-opacity:1;fill-rule:nonzero;stroke:none"
           id="path12687"
           inkscape:connector-curvature="0" /><path
           d="m 449.325,429.753 c 3.877,0.265 7.226,-2.694 7.358,-6.567 0.265,-3.877 -2.694,-7.193 -6.572,-7.49 -3.806,-0.265 -7.224,2.659 -7.356,6.567 -0.257,3.878 2.765,7.195 6.57,7.49"
           style="fill:#231f20;fill-opacity:1;fill-rule:nonzero;stroke:none"
           id="path12689"
           inkscape:connector-curvature="0" /><path
           d="m 404.656,334.604 c 4.73,0.26 8.74,-3.286 9,-7.984 0.199,-4.73 -3.351,-8.802 -8.015,-9.129 -4.663,-0.331 -8.735,3.219 -9,7.945 -0.261,4.668 3.351,8.805 8.015,9.168"
           style="fill:#231f20;fill-opacity:1;fill-rule:nonzero;stroke:none"
           id="path12691"
           inkscape:connector-curvature="0" /><path
           d="m 403.212,362.42 c 4.598,0.363 8.669,-3.219 8.934,-7.948 0.26,-4.73 -3.286,-8.766 -8.015,-9.129 -4.663,-0.296 -8.669,3.25 -8.935,7.949 -0.259,4.695 3.286,8.802 8.016,9.128"
           style="fill:#231f20;fill-opacity:1;fill-rule:nonzero;stroke:none"
           id="path12693"
           inkscape:connector-curvature="0" /><path
           d="m 401.702,389.681 c 4.73,0.362 8.735,-3.219 9,-7.914 0.261,-4.698 -3.418,-8.801 -8.015,-9.163 -4.729,-0.331 -8.74,3.286 -9,7.979 -0.328,4.699 3.352,8.771 8.015,9.098"
           style="fill:#231f20;fill-opacity:1;fill-rule:nonzero;stroke:none"
           id="path12695"
           inkscape:connector-curvature="0" /><path
           d="m 400.253,417.467 c 4.669,0.465 8.674,-3.153 8.938,-7.847 0.195,-4.729 -3.418,-8.801 -8.081,-9.098 -4.663,-0.361 -8.735,3.251 -8.934,7.915 -0.264,4.699 3.352,8.77 8.077,9.03"
           style="fill:#231f20;fill-opacity:1;fill-rule:nonzero;stroke:none"
           id="path12697"
           inkscape:connector-curvature="0" /><path
           d="m 398.615,447.162 c 4.663,0.259 8.669,-3.286 8.934,-7.981 0.261,-4.699 -3.285,-8.739 -8.015,-9.132 -4.664,-0.296 -8.74,3.286 -8.934,7.98 -0.265,4.699 3.286,8.77 8.015,9.133"
           style="fill:#231f20;fill-opacity:1;fill-rule:nonzero;stroke:none"
           id="path12699"
           inkscape:connector-curvature="0" /><path
           d="m 353.88,328.425 c 5.516,0.331 10.179,-3.873 10.51,-9.424 0.328,-5.52 -3.877,-10.347 -9.393,-10.709 -5.519,-0.362 -10.249,3.812 -10.576,9.362 -0.331,5.485 3.873,10.347 9.459,10.771"
           style="fill:#231f20;fill-opacity:1;fill-rule:nonzero;stroke:none"
           id="path12701"
           inkscape:connector-curvature="0" /><path
           d="m 352.104,361.14 c 5.521,0.428 10.25,-3.776 10.511,-9.327 0.33,-5.551 -3.874,-10.316 -9.46,-10.775 -5.453,-0.327 -10.244,3.846 -10.509,9.362 -0.261,5.582 3.943,10.378 9.458,10.74"
           style="fill:#231f20;fill-opacity:1;fill-rule:nonzero;stroke:none"
           id="path12703"
           inkscape:connector-curvature="0" /><path
           d="m 350.396,393.232 c 5.52,0.424 10.183,-3.812 10.51,-9.332 0.331,-5.484 -3.939,-10.346 -9.46,-10.77 -5.449,-0.363 -10.245,3.872 -10.509,9.392 -0.393,5.517 3.876,10.347 9.459,10.71"
           style="fill:#231f20;fill-opacity:1;fill-rule:nonzero;stroke:none"
           id="path12705"
           inkscape:connector-curvature="0" /><path
           d="m 348.691,425.942 c 5.383,0.525 10.179,-3.745 10.445,-9.23 0.326,-5.581 -4.011,-10.378 -9.395,-10.74 -5.585,-0.424 -10.381,3.847 -10.576,9.332 -0.331,5.515 3.873,10.311 9.526,10.638"
           style="fill:#231f20;fill-opacity:1;fill-rule:nonzero;stroke:none"
           id="path12707"
           inkscape:connector-curvature="0" /><path
           d="m 346.717,460.825 c 5.52,0.362 10.25,-3.842 10.511,-9.363 0.331,-5.551 -3.94,-10.311 -9.459,-10.739 -5.45,-0.327 -10.246,3.841 -10.511,9.392 -0.261,5.521 3.943,10.317 9.459,10.71"
           style="fill:#231f20;fill-opacity:1;fill-rule:nonzero;stroke:none"
           id="path12709"
           inkscape:connector-curvature="0" /><path
           d="m 302.114,318.476 c 6.373,0.362 11.76,-4.434 12.154,-10.807 0.264,-6.372 -4.532,-11.923 -10.905,-12.315 -6.305,-0.46 -11.759,4.367 -12.086,10.704 -0.393,6.372 4.465,11.923 10.837,12.418"
           style="fill:#231f20;fill-opacity:1;fill-rule:nonzero;stroke:none"
           id="path12711"
           inkscape:connector-curvature="0" /><path
           d="m 300.078,356.083 c 6.306,0.491 11.827,-4.336 12.153,-10.673 0.328,-6.439 -4.53,-11.892 -10.903,-12.418 -6.307,-0.394 -11.76,4.402 -12.153,10.775 -0.265,6.372 4.597,11.919 10.903,12.316"
           style="fill:#231f20;fill-opacity:1;fill-rule:nonzero;stroke:none"
           id="path12713"
           inkscape:connector-curvature="0" /><path
           d="m 298.109,392.966 c 6.306,0.526 11.694,-4.336 12.086,-10.673 0.394,-6.342 -4.596,-11.923 -10.775,-12.383 -6.372,-0.429 -11.821,4.434 -12.215,10.771 -0.397,6.373 4.465,11.893 10.904,12.285"
           style="fill:#231f20;fill-opacity:1;fill-rule:nonzero;stroke:none"
           id="path12715"
           inkscape:connector-curvature="0" /><path
           d="m 296.139,430.605 c 6.24,0.592 11.689,-4.301 12.088,-10.607 0.26,-6.404 -4.603,-11.923 -10.909,-12.348 -6.372,-0.494 -11.821,4.434 -12.087,10.705 -0.393,6.373 4.47,11.893 10.908,12.25"
           style="fill:#231f20;fill-opacity:1;fill-rule:nonzero;stroke:none"
           id="path12717"
           inkscape:connector-curvature="0" /><path
           d="m 293.905,470.743 c 6.306,0.394 11.755,-4.433 12.086,-10.771 0.393,-6.372 -4.469,-11.857 -10.903,-12.351 -6.306,-0.393 -11.76,4.403 -12.025,10.806 -0.393,6.337 4.469,11.857 10.842,12.316"
           style="fill:#231f20;fill-opacity:1;fill-rule:nonzero;stroke:none"
           id="path12719"
           inkscape:connector-curvature="0" /><path
           d="m 249.629,304.648 c 7.225,0.424 13.336,-5.025 13.73,-12.188 0.327,-7.225 -5.124,-13.464 -12.286,-13.959 -7.158,-0.489 -13.266,4.959 -13.664,12.122 -0.393,7.194 5.061,13.465 12.22,14.025"
           style="fill:#231f20;fill-opacity:1;fill-rule:nonzero;stroke:none"
           id="path12721"
           inkscape:connector-curvature="0" /><path
           d="m 247.394,347.216 c 7.097,0.556 13.337,-4.929 13.664,-12.122 0.397,-7.261 -5.123,-13.435 -12.348,-13.99 -7.097,-0.46 -13.271,4.959 -13.663,12.153 -0.393,7.224 5.122,13.465 12.347,13.959"
           style="fill:#231f20;fill-opacity:1;fill-rule:nonzero;stroke:none"
           id="path12723"
           inkscape:connector-curvature="0" /><path
           d="m 245.031,388.896 c 7.292,0.591 13.333,-4.894 13.796,-12.088 0.394,-7.163 -5.193,-13.469 -12.219,-13.994 -7.225,-0.491 -13.403,4.994 -13.796,12.188 -0.393,7.194 5.056,13.434 12.219,13.894"
           style="fill:#231f20;fill-opacity:1;fill-rule:nonzero;stroke:none"
           id="path12725"
           inkscape:connector-curvature="0" /><path
           d="m 242.863,431.426 c 7.03,0.694 13.27,-4.826 13.598,-11.984 0.393,-7.261 -5.124,-13.47 -12.22,-13.96 -7.225,-0.525 -13.398,4.99 -13.663,12.118 -0.393,7.193 5.061,13.402 12.285,13.826"
           style="fill:#231f20;fill-opacity:1;fill-rule:nonzero;stroke:none"
           id="path12727"
           inkscape:connector-curvature="0" /><path
           d="m 240.301,476.789 c 7.226,0.46 13.399,-4.995 13.797,-12.189 0.393,-7.158 -5.127,-13.367 -12.352,-13.959 -7.092,-0.424 -13.337,5.026 -13.663,12.22 -0.394,7.158 5.122,13.403 12.218,13.928"
           style="fill:#231f20;fill-opacity:1;fill-rule:nonzero;stroke:none"
           id="path12729"
           inkscape:connector-curvature="0" /><path
           d="m 196.684,286.945 c 8.015,0.491 14.847,-5.588 15.306,-13.597 0.459,-8.052 -5.714,-15.045 -13.597,-15.573 -8.082,-0.555 -14.98,5.521 -15.372,13.536 -0.393,8.011 5.647,15.043 13.663,15.634"
           style="fill:#231f20;fill-opacity:1;fill-rule:nonzero;stroke:none"
           id="path12731"
           inkscape:connector-curvature="0" /><path
           d="m 194.188,334.405 c 7.884,0.623 14.843,-5.485 15.241,-13.501 0.393,-8.112 -5.653,-15.009 -13.73,-15.633 -7.949,-0.525 -14.781,5.583 -15.306,13.567 -0.393,8.046 5.78,15.041 13.795,15.567"
           style="fill:#231f20;fill-opacity:1;fill-rule:nonzero;stroke:none"
           id="path12733"
           inkscape:connector-curvature="0" /><path
           d="m 191.623,380.911 c 8.082,0.658 14.78,-5.485 15.306,-13.495 0.46,-7.985 -5.78,-15.011 -13.663,-15.638 -8.012,-0.526 -14.843,5.617 -15.307,13.663 -0.459,7.984 5.587,14.949 13.664,15.47"
           style="fill:#231f20;fill-opacity:1;fill-rule:nonzero;stroke:none"
           id="path12735"
           inkscape:connector-curvature="0" /><path
           d="m 189.194,428.34 c 7.883,0.755 14.715,-5.419 15.174,-13.368 0.459,-8.076 -5.781,-15.04 -13.73,-15.566 -8.01,-0.592 -14.842,5.581 -15.24,13.531 -0.393,8.015 5.652,14.944 13.796,15.403"
           style="fill:#231f20;fill-opacity:1;fill-rule:nonzero;stroke:none"
           id="path12737"
           inkscape:connector-curvature="0" /><path
           d="m 186.306,478.953 c 8.011,0.495 14.843,-5.582 15.301,-13.598 0.465,-8.01 -5.648,-14.908 -13.725,-15.566 -7.882,-0.495 -14.846,5.582 -15.24,13.632 -0.463,8.011 5.649,14.945 13.664,15.532"
           style="fill:#231f20;fill-opacity:1;fill-rule:nonzero;stroke:none"
           id="path12739"
           inkscape:connector-curvature="0" /><path
           d="m 143.54,265.296 c 8.868,0.526 16.358,-6.173 16.883,-15.04 0.459,-8.869 -6.306,-16.553 -15.107,-17.143 -8.807,-0.628 -16.424,6.107 -16.884,14.943 -0.458,8.832 6.24,16.551 15.108,17.24"
           style="fill:#231f20;fill-opacity:1;fill-rule:nonzero;stroke:none"
           id="path12741"
           inkscape:connector-curvature="0" /><path
           d="m 140.714,317.654 c 8.806,0.689 16.423,-6.045 16.883,-14.914 0.46,-8.897 -6.241,-16.519 -15.174,-17.244 -8.735,-0.521 -16.357,6.143 -16.817,14.98 -0.525,8.902 6.307,16.587 15.108,17.178"
           style="fill:#231f20;fill-opacity:1;fill-rule:nonzero;stroke:none"
           id="path12743"
           inkscape:connector-curvature="0" /><path
           d="m 137.958,368.992 c 8.868,0.689 16.292,-6.046 16.816,-14.914 0.526,-8.801 -6.306,-16.551 -15.045,-17.209 -8.801,-0.592 -16.357,6.173 -16.882,15.01 -0.526,8.832 6.177,16.521 15.111,17.113"
           style="fill:#231f20;fill-opacity:1;fill-rule:nonzero;stroke:none"
           id="path12745"
           inkscape:connector-curvature="0" /><path
           d="m 135.198,421.313 c 8.669,0.822 16.291,-5.978 16.817,-14.749 0.393,-8.934 -6.439,-16.587 -15.107,-17.21 -8.873,-0.658 -16.557,6.174 -16.884,14.945 -0.459,8.837 6.24,16.52 15.174,17.014"
           style="fill:#231f20;fill-opacity:1;fill-rule:nonzero;stroke:none"
           id="path12747"
           inkscape:connector-curvature="0" /><path
           d="m 132.044,477.182 c 8.803,0.526 16.424,-6.174 16.95,-15.011 0.526,-8.836 -6.306,-16.489 -15.179,-17.178 -8.734,-0.556 -16.419,6.143 -16.816,15.01 -0.526,8.837 6.245,16.521 15.045,17.179"
           style="fill:#231f20;fill-opacity:1;fill-rule:nonzero;stroke:none"
           id="path12749"
           inkscape:connector-curvature="0" /><path
           d="m 90.396,239.647 c 9.658,0.593 17.868,-6.734 18.394,-16.423 0.525,-9.689 -6.832,-18.128 -16.424,-18.755 -9.72,-0.658 -17.995,6.67 -18.521,16.328 -0.526,9.651 6.832,18.127 16.551,18.85"
           style="fill:#231f20;fill-opacity:1;fill-rule:nonzero;stroke:none"
           id="path12751"
           inkscape:connector-curvature="0" /><path
           d="m 87.244,296.93 c 9.591,0.755 18,-6.638 18.526,-16.291 0.459,-9.791 -6.898,-18.098 -16.623,-18.889 -9.522,-0.59 -17.93,6.735 -18.455,16.389 -0.526,9.724 6.96,18.164 16.552,18.791"
           style="fill:#231f20;fill-opacity:1;fill-rule:nonzero;stroke:none"
           id="path12753"
           inkscape:connector-curvature="0" /><path
           d="m 84.223,353.063 c 9.72,0.755 17.867,-6.602 18.393,-16.296 0.658,-9.622 -6.898,-18.128 -16.424,-18.852 -9.591,-0.623 -17.934,6.734 -18.525,16.424 -0.525,9.658 6.832,18.097 16.556,18.724"
           style="fill:#231f20;fill-opacity:1;fill-rule:nonzero;stroke:none"
           id="path12755"
           inkscape:connector-curvature="0" /><path
           d="m 81.202,410.309 c 9.521,0.918 17.868,-6.536 18.394,-16.159 0.525,-9.755 -6.965,-18.132 -16.556,-18.786 -9.659,-0.724 -18.001,6.766 -18.394,16.323 -0.525,9.688 6.832,18.065 16.556,18.622"
           style="fill:#231f20;fill-opacity:1;fill-rule:nonzero;stroke:none"
           id="path12757"
           inkscape:connector-curvature="0" /><path
           d="m 77.784,471.401 c 9.592,0.593 18,-6.765 18.526,-16.423 0.525,-9.659 -6.898,-18 -16.556,-18.786 -9.588,-0.592 -17.996,6.73 -18.394,16.454 -0.653,9.659 6.832,18.031 16.424,18.755"
           style="fill:#231f20;fill-opacity:1;fill-rule:nonzero;stroke:none"
           id="path12759"
           inkscape:connector-curvature="0" /><path
           d="m 37.452,210.021 c 10.51,0.622 19.444,-7.359 19.969,-17.869 0.526,-10.509 -7.489,-19.673 -17.867,-20.363 -10.511,-0.723 -19.576,7.262 -20.102,17.736 -0.526,10.481 7.489,19.674 18,20.496"
           style="fill:#231f20;fill-opacity:1;fill-rule:nonzero;stroke:none"
           id="path12761"
           inkscape:connector-curvature="0" /><path
           d="m 34.034,272.195 c 10.444,0.821 19.576,-7.189 20.102,-17.701 0.526,-10.611 -7.49,-19.641 -18,-20.498 -10.444,-0.654 -19.444,7.325 -20.098,17.805 -0.525,10.541 7.552,19.705 17.996,20.394"
           style="fill:#231f20;fill-opacity:1;fill-rule:nonzero;stroke:none"
           id="path12763"
           inkscape:connector-curvature="0" /><path
           d="m 30.753,333.124 c 10.51,0.852 19.444,-7.159 19.969,-17.669 0.654,-10.449 -7.49,-19.709 -17.867,-20.465 -10.383,-0.688 -19.444,7.323 -20.036,17.833 -0.592,10.48 7.424,19.612 17.934,20.301"
           style="fill:#231f20;fill-opacity:1;fill-rule:nonzero;stroke:none"
           id="path12765"
           inkscape:connector-curvature="0" /><path
           d="m 27.467,395.299 c 10.377,0.984 19.444,-7.092 19.97,-17.541 0.525,-10.608 -7.557,-19.705 -18.001,-20.394 -10.444,-0.79 -19.51,7.322 -19.969,17.704 -0.526,10.542 7.49,19.608 18,20.231"
           style="fill:#231f20;fill-opacity:1;fill-rule:nonzero;stroke:none"
           id="path12767"
           inkscape:connector-curvature="0" /><path
           d="m 23.788,461.611 c 10.444,0.658 19.444,-7.322 20.036,-17.832 0.592,-10.48 -7.423,-19.541 -17.934,-20.399 -10.443,-0.657 -19.577,7.327 -19.969,17.869 -0.658,10.479 7.357,19.576 17.867,20.362"
           style="fill:#231f20;fill-opacity:1;fill-rule:nonzero;stroke:none"
           id="path12769"
           inkscape:connector-curvature="0" /></g></g></g></svg>